<!-- Generated by IcoMoon.io -->
<svg version="1.1" xmlns="http://www.w3.org/2000/svg" width="224" height="224" viewBox="0 0 224 224">
<title></title>
<g id="icomoon-ignore">
</g>
<path d="M214.635 63.024c-19.427-2.793-40.115-4.816-61.704-5.954l36.069-36.069-14-14-49.122 49.122c-4.595-0.081-9.222-0.122-13.878-0.122v0l-56-56-14 14 42.48 42.48c-26.452 0.928-51.699 3.177-75.116 6.543-6.023 23.565-9.365 49.602-9.365 76.976s3.342 53.411 9.363 76.976c31.422 4.518 66.137 7.024 102.637 7.024s71.214-2.506 102.635-7.024c6.023-23.565 9.365-49.602 9.365-76.976s-3.342-53.411-9.365-76.976zM188.976 191.317c-23.566 3.011-49.602 4.683-76.976 4.683s-53.411-1.671-76.976-4.683c-4.517-15.71-7.024-33.068-7.024-51.317s2.506-35.608 7.024-51.318c23.565-3.011 49.602-4.682 76.976-4.682 27.373 0 53.41 1.671 76.975 4.682 4.519 15.71 7.025 33.068 7.025 51.318s-2.506 35.608-7.024 51.317z"></path>
</svg>
