<!-- Generated by IcoMoon.io -->
<svg version="1.1" xmlns="http://www.w3.org/2000/svg" width="252" height="224" viewBox="0 0 252 224">
<title></title>
<g id="icomoon-ignore">
</g>
<path d="M168 168.571v-11.546c15.421-8.69 28-30.356 28-52.026 0-34.794 0-63-42-63s-42 28.206-42 63c0 21.669 12.579 43.335 28 52.026v11.546c-47.491 3.882-84 27.217-84 55.429h196c0-28.212-36.509-51.546-84-55.429z"></path>
<path d="M71.574 173.978c12.099-7.908 27.142-13.92 43.704-17.591-3.293-3.89-6.28-8.23-8.858-12.911-6.653-12.082-10.17-25.388-10.17-38.477 0-18.822 0-36.599 6.694-51.135 6.498-14.11 18.184-22.858 34.83-26.138-3.7-16.73-13.549-27.727-39.774-27.727-42 0-42 28.206-42 63 0 21.669 12.579 43.335 28 52.026v11.546c-47.491 3.882-84 27.217-84 55.429h61.033c3.176-2.824 6.693-5.506 10.542-8.022z"></path>
</svg>
